PathFileType	4	(X/Y/Z)	C:\Users\chris\Documents\GitHub\baseballds\vids\pitch5_Sports2D\pitch5_Sports2D_px_person01.trc
DataRate	CameraRate	NumFrames	NumMarkers	Units	OrigDataRate	OrigDataStartFrame	OrigNumFrames
30	30	6	22	m	30	111	149
Frame#	Time	Hip			RHip			RKnee			RAnkle			RBigToe			RSmallToe			RHeel			LHip			LKnee			LAnkle			LBigToe			LSmallToe			LHeel			Neck			Head			Nose			RShoulder			RElbow			RWrist			LShoulder			LElbow			LWrist		
		X1	Y1	Z1	X2	Y2	Z2	X3	Y3	Z3	X4	Y4	Z4	X5	Y5	Z5	X6	Y6	Z6	X7	Y7	Z7	X8	Y8	Z8	X9	Y9	Z9	X10	Y10	Z10	X11	Y11	Z11	X12	Y12	Z12	X13	Y13	Z13	X14	Y14	Z14	X15	Y15	Z15	X16	Y16	Z16	X17	Y17	Z17	X18	Y18	Z18	X19	Y19	Z19	X20	Y20	Z20	X21	Y21	Z21	X22	Y22	Z22
111	3.6999999999999997	377.38254656579807	562.0582529488524	0.0	347.6096921232906	565.4938468099731	0.0	351.11453157019344	663.3294712293624	0.0	368.18524142135607	741.5014597219647	0.0	370.0393956531317	787.1176490984617	0.0	358.21871711125516	781.3683877161054	0.0	376.58369579828087	753.251956154451	0.0	407.16122970370964	565.0822639258386	0.0	396.5025332261492	671.0275802581282	0.0	379.2800849434036	777.1500236121288	0.0	364.6131024804368	814.1014774088875	0.0	382.31938491305607	811.7986450485951	0.0	373.6568570423477	791.8166627261098	0.0	377.83816831940464	398.0184788096482	0.0	386.47599574283583	329.7905650050082	0.0	399.12763393072237	369.8094315210724	0.0	318.40387812888025	417.4038998476265	0.0	308.2413267117974	492.8233904548406	0.0	348.5187653805649	535.071743594384	0.0	428.16880139029723	421.1067842508802	0.0	436.3395531593018	491.7929945394436	0.0	390.2708717833555	534.6811530148715	0.0
112	3.7333333333333334	375.96349952325124	561.6560279550204	0.0	346.10759333534503	565.8902185369733	0.0	348.2476061063075	664.5798028332805	0.0	367.8031613691072	740.16177533111	0.0	369.86857930321787	782.325641893543	0.0	358.5275632622806	777.810322852319	0.0	376.2464712665175	750.5538069910384	0.0	406.30954011977354	565.205517419124	0.0	396.81026528983386	670.9595067505948	0.0	378.97141886069375	777.437272492143	0.0	364.3278588297385	814.0109929852148	0.0	381.7894317416328	811.549842768555	0.0	373.39058145915334	792.5553207326961	0.0	377.4646632950425	397.52834355941116	0.0	386.0829424616186	327.56835488307735	0.0	398.52103828088167	368.6183079489816	0.0	316.8062998592926	416.69196534458825	0.0	307.1599663027829	491.2971969857647	0.0	346.38741693992006	535.7172052344614	0.0	428.51317266084357	421.0562924195314	0.0	435.60511244437794	492.18922822912555	0.0	389.8512033590116	535.0050204457024	0.0
113	3.7666666666666666	374.4383020233157	561.9022305332402	0.0	344.58640515547796	566.0478986620633	0.0	344.9993493423409	666.9778045165839	0.0	366.5936172691101	738.6498244777503	0.0	370.52726181620073	779.6615304922891	0.0	358.84418024228273	776.7890685966685	0.0	375.3096860362689	749.0714892887314	0.0	404.96703447949307	565.5136123139027	0.0	396.80955600156705	671.1584456622479	0.0	378.47933685788576	777.2279477952711	0.0	364.0047062548214	813.6990469803453	0.0	381.3576469996105	811.0808740301121	0.0	373.50433978234224	792.9510264137202	0.0	376.92513377040774	396.39933384646054	0.0	385.64363266223233	324.9017355500649	0.0	398.45041659243276	366.52061729409655	0.0	315.47683180409325	415.699956861767	0.0	305.93409908287003	489.96306127630476	0.0	345.4827490516983	536.3070255731249	0.0	428.65917860411224	420.8379586014944	0.0	434.95008144417835	492.49994436499884	0.0	388.6240605893353	535.797594227333	0.0
114	3.8	372.9448011964547	562.4470264646818	0.0	343.0315397008077	566.3273670682585	0.0	341.7938622822129	669.6308870041111	0.0	363.54037210690694	735.5406398143663	0.0	370.9536690774833	777.6048987002712	0.0	358.7872603402743	776.3387131374622	0.0	371.8899235235959	746.0022331190034	0.0	403.2907570268769	566.2306734980892	0.0	396.3437452378151	672.4974720307022	0.0	377.9178535703123	776.9805997627739	0.0	363.5880404688151	813.3862823908565	0.0	380.9919693107466	810.9255407285247	0.0	373.7088011986247	792.9947809210248	0.0	375.92758385032266	394.51294207070777	0.0	384.7816109078047	322.8320272578931	0.0	398.1469886072549	364.11010078348545	0.0	314.38195472075734	414.40143344229557	0.0	304.4037108784157	488.54405266411106	0.0	345.83306534727626	535.9528269634486	0.0	428.2359273622484	420.1827889274013	0.0	434.014830404651	492.1027547554638	0.0	387.069864056828	535.7491704623696	0.0
115	3.8333333333333335	371.45511395139556	562.6298054497635	0.0	341.20337706964756	566.3212251233822	0.0	338.73975669305713	671.9636608103722	0.0	359.38888499995915	733.0065389134328	0.0	370.56423947597415	776.5177391694428	0.0	358.02996583620586	776.4458752995439	0.0	366.56062331975636	742.1202206135233	0.0	401.66157789144177	566.7771862763273	0.0	395.3862027308577	674.6890822350374	0.0	377.4596997867848	777.2509323765958	0.0	363.4596857438772	813.1688656659305	0.0	380.3714504765759	811.2339317966852	0.0	373.6018980639301	793.1672914267219	0.0	374.7247125454307	392.63247732361054	0.0	383.50353147145495	321.89984763850686	0.0	396.9897353412904	362.42766096518756	0.0	313.05759203249926	413.17635599809245	0.0	302.5482510575674	487.251136781332	0.0	347.0589696908706	534.0814928587731	0.0	427.61380058821135	419.5558470368163	0.0	432.5138665035607	491.63922619558343	0.0	385.6181327606876	534.0639333757532	0.0
116	3.8666666666666667	369.80089047650415	562.4993845920927	0.0	339.12032380708206	565.3568620805361	0.0	335.32352888769975	672.9653421516647	0.0	355.20234146965305	733.1498486642716	0.0	368.4687326894747	778.6377059180973	0.0	355.4372559941529	778.163438102155	0.0	361.42567941483344	740.4241827538408	0.0	400.11308436806723	566.3880571285065	0.0	394.3765372937962	676.3477734328935	0.0	377.0416709334351	777.9354250459392	0.0	363.77572198624983	813.092774474842	0.0	379.5921787497843	811.6112694232806	0.0	373.03503185397074	793.5341483175459	0.0	373.7218569817418	391.36735058550306	0.0	382.27171331197803	321.0816086399714	0.0	395.3037212245852	361.4189584418518	0.0	311.21585182166916	412.1328997509623	0.0	300.48154048040215	486.75301146765935	0.0	347.4384881686074	532.2735150719163	0.0	427.0816165974924	419.43595821868433	0.0	430.7561716373268	492.0682386896293	0.0	384.1165338247435	532.668905135916	0.0
